<?xml version="1.0" encoding="UTF-8"?>
<svg id="Layer_2" data-name="Layer 2" xmlns="http://www.w3.org/2000/svg" viewBox="0 0 533.36 678.53">
  <defs>
    <style>
      .cls-1 {
        stroke-miterlimit: 10;
      }

      .cls-1, .cls-2 {
        fill: none;
        stroke: #000;
        stroke-width: 16px;
      }

      .cls-2 {
        stroke-linecap: round;
        stroke-linejoin: round;
      }
    </style>
  </defs>
  <g id="Layer_1-2" data-name="Layer 1">
    <path class="cls-2" d="M157.73,160.26c-13.01-21.3-17.69-47.17-12.82-71.66,4.68-23.5,17.89-44.97,36.85-59.65,19.77-15.31,45.16-22.79,70.07-20.57,23.91,2.13,46.7,13.04,63.34,30.35,19.94,20.74,29.91,49.54,27.18,78.19-.38,3.94-.97,7.86-1.79,11.73"/>
    <path class="cls-1" d="M72.84,316.94l74.75,122.06c24.06,13.41,53.67-3.99,53.67-31.54l-3-314.57c0-10,4.11-19.57,11.44-26.37,12.89-11.96,35.82-23.9,64.26,1.05,7.76,6.8,12.13,16.68,12.13,27l9,171.65c0,14.61,8.8,27.77,22.3,33.36l185.05,80.29c12.92,5.35,21.59,17.66,22.26,31.63,2.88,60.44.57,220.5-101.75,248.55-99.02,27.15-187.29-6.16-230.67-14.13-11.78-2.16-21.7-10.05-26.5-21.02L13.74,355.23s-24.04-54.66,26.28-58.92c6.05-.51,15.63,5.75,22.92,10.47,4.02,2.6,7.41,6.07,9.91,10.16Z"/>
  </g>
</svg>