<?xml version="1.0" encoding="UTF-8"?>
<svg id="Layer_2" data-name="Layer 2" xmlns="http://www.w3.org/2000/svg" viewBox="0 0 347.48 344.81">
  <defs>
    <style>
      .cls-1 {
        fill: #028c5c;
      }
    </style>
  </defs>
  <g id="Butterfly_hugs" data-name="Butterfly hugs">
    <circle class="cls-1" cx="167.09" cy="69" r="69"/>
    <path class="cls-1" d="M128.72,87.39c.33,0,.75.25.98.59.21.31.23.57.07,1l-.05.14-.05.14-45.86,135.12c-1.08,2.94-1.43,6.12-1.01,9.19,1.24,9.01,9.17,15.81,18.44,15.81,2.73,0,5.37-.58,7.86-1.72l.58-.26.53-.34,152.17-97.78s.04,0,.06,0c.34,0,.6.19.64.28,0,.03,0,.07,0,.11v41.82c-.15,2.07-2.67,7.64-4.43,9.52-2.22.67-3.82,1.91-4.75,2.63-.07.06-.15.11-.22.17l-.18.11L37.6,335.78c-.07.02-.14.03-.22.03-.07,0-.14-.01-.21-.03-8.63-2.5-22.86-8.91-27.63-12.29-3.52-60.98,9.99-115.17,40.17-161.13,28.82-43.88,64.44-66.92,78.42-74.78.34-.19.53-.19.59-.19M128.72,78.39c-1.64,0-3.35.42-5,1.35C79.96,104.37-8.94,179.91.73,326.81c.3,4.51,23.54,14.61,33.94,17.62.89.26,1.8.38,2.71.38,1.56,0,3.11-.38,4.52-1.11l216.31-132.1c1.04-.55,2.18-1.86,3.34-2.04,4.84-.77,10.55-12.96,10.55-18.02v-41.88c0-.28-.01-.56-.03-.83-.41-5.1-4.85-8.56-9.61-8.56-1.37,0-2.76.28-4.1.9l-153,98.32c-1.33.61-2.73.9-4.1.9-4.58,0-8.86-3.18-9.53-8.03-.22-1.6-.06-3.29.57-4.95l45.9-135.25c2.68-7.1-2.9-13.77-9.47-13.77h0Z"/>
    <path class="cls-1" d="M223.76,79.74c43.76,24.63,132.65,100.18,122.99,247.07-.3,4.51-23.54,14.61-33.94,17.62-2.42.7-5,.44-7.23-.73L62.98,188.97c-1.04-.55-2.18-1.86-3.34-2.04-4.84-.77-10.55-12.96-10.55-18.02v-41.88c0-.28.01-.56.03-.83.53-6.56,7.72-10.41,13.71-7.66l179.29,120.94c5.78,2.65,12.76-.83,13.63-7.14.22-1.6.06-3.29-.57-4.95l-45.9-135.25c-3.35-8.88,6.21-17.08,14.48-12.42Z"/>
  </g>
</svg>