<?xml version="1.0" encoding="UTF-8"?>
<svg id="Layer_2" data-name="Layer 2" xmlns="http://www.w3.org/2000/svg" viewBox="0 0 352.55 344.95">
  <defs>
    <style>
      .cls-1 {
        fill: #028c5c;
      }

      .cls-2 {
        fill: none;
        stroke: #028c5c;
        stroke-miterlimit: 10;
        stroke-width: 9px;
      }
    </style>
  </defs>
  <g id="Butterfly_hugs" data-name="Butterfly hugs">
    <circle class="cls-1" cx="180.38" cy="69" r="69"/>
    <path class="cls-1" d="M219.76,87.52c.06,0,.25,0,.59.19,13.98,7.87,49.6,30.91,78.42,74.78,30.18,45.95,43.69,100.15,40.17,161.13-4.78,3.39-19,9.8-27.63,12.29-.07.02-.14.03-.21.03-.08,0-.15-.01-.22-.03L94.96,204.06l-.18-.11c-.07-.05-.14-.11-.22-.17-.93-.72-2.53-1.96-4.75-2.63-1.76-1.88-4.27-7.45-4.43-9.52v-41.82s0-.07,0-.13c.05-.07.3-.26.64-.26.02,0,.04,0,.06,0l152.17,97.78.53.34.58.26c2.48,1.14,5.13,1.72,7.86,1.72,9.28,0,17.21-6.8,18.44-15.81.42-3.08.07-6.25-1.01-9.19l-45.86-135.12-.05-.14-.05-.14c-.16-.43-.14-.69.07-1,.24-.34.65-.59.99-.59M219.76,78.52c-6.57,0-12.16,6.67-9.47,13.77l45.9,135.25c.63,1.66.79,3.35.57,4.95-.67,4.85-4.95,8.03-9.53,8.03-1.37,0-2.77-.29-4.1-.9l-153-98.32c-1.33-.61-2.73-.9-4.1-.9-4.76,0-9.2,3.46-9.61,8.56-.02.27-.03.55-.03.83v41.88c0,5.06,5.7,17.25,10.55,18.02,1.16.18,2.3,1.49,3.34,2.04l216.31,132.1c1.41.74,2.96,1.11,4.52,1.11.91,0,1.82-.13,2.71-.39,10.4-3.01,33.65-13.11,33.94-17.62,9.67-146.89-79.23-222.44-122.99-247.07-1.65-.93-3.36-1.35-5-1.35h0Z"/>
    <path class="cls-1" d="M123.71,79.87C79.96,104.5-8.94,180.05.73,326.94c.3,4.51,23.54,14.61,33.94,17.62,2.42.7,5,.44,7.23-.73l242.6-154.73c1.04-.55,2.18-1.86,3.34-2.04,4.84-.77,10.55-12.96,10.55-18.02v-41.88c0-.28-.01-.56-.03-.83-.53-6.56-7.72-10.41-13.71-7.66l-179.29,120.94c-5.78,2.65-12.76-.83-13.63-7.14-.22-1.6-.06-3.29.57-4.95l45.9-135.25c3.35-8.88-6.21-17.08-14.48-12.42Z"/>
    <path class="cls-2" d="M292.96,99.2c8.81.79,17.21,4.81,23.34,11.19,7.35,7.64,11.02,18.26,10.02,28.81"/>
    <path class="cls-2" d="M297.76,78.52c13.22,1.18,25.82,7.21,35.01,16.78,11.02,11.46,16.54,27.39,15.03,43.22"/>
  </g>
</svg>