<?xml version="1.0" encoding="UTF-8"?>
<svg id="Layer_2" data-name="Layer 2" xmlns="http://www.w3.org/2000/svg" viewBox="0 0 400 409.34">
  <defs>
    <style>
      .cls-1 {
        fill: #028c5c;
      }

      .cls-2 {
        fill: none;
        stroke: #028c5c;
        stroke-miterlimit: 10;
        stroke-width: 9px;
      }
    </style>
  </defs>
  <g id="balloon">
    <path class="cls-1" d="M97.73,0L17.42,101h106.58v57.6c3.26-.89,6.6-1.37,9.89-1.37,21.68,0,37.73,17.69,38.67,38.62.43,9.62-4.62,20.61-11.33,27.31-7.01,7-17.43,11.31-27.35,11.31-3.45,0-6.76-.45-9.89-1.29v1.98s4.89,58.54,73.28,60.98c68.39,2.44,75.72,0,75.72,0v104.88h58.77c-2.32-2.5-3.77-5.83-3.77-9.23v-157.46c0-7.56,6.19-13.15,13.5-13.48,7.29-.33,13.5,6.43,13.5,13.48v157.46c0,3.67-1.45,6.86-3.76,9.23h48.76V0H97.73ZM340.86,196h-95.37c-7.57,0-13.17-6.19-13.5-13.5-.33-7.29,6.44-13.5,13.5-13.5h95.37c7.57,0,13.17,6.19,13.5,13.5.33,7.29-6.44,13.5-13.5,13.5Z"/>
    <line class="cls-2" x1="25" y1="187.5" x2="84" y2="187.5"/>
    <line class="cls-2" x1="8" y1="220.5" x2="73" y2="220.5"/>
    <line class="cls-2" y1="172.5" x2="100" y2="172.5"/>
    <line class="cls-2" x1="29" y1="203.5" x2="117" y2="203.5"/>
    <polyline class="cls-2" points="247 188.5 340.78 188.5 325.68 173.39"/>
    <polyline class="cls-2" points="335.5 235 335.5 391.97 347.71 370"/>
  </g>
</svg>