<?xml version="1.0" encoding="UTF-8"?>
<svg id="Layer_2" data-name="Layer 2" xmlns="http://www.w3.org/2000/svg" viewBox="0 0 500 427">
  <defs>
    <style>
      .cls-1 {
        fill: #ef1a0a;
      }
    </style>
  </defs>
  <g id="balloon">
    <circle class="cls-1" cx="258" cy="69" r="69"/>
    <path class="cls-1" d="M185.74,102.11c-43.65,24.58-132.25,92.93-122.64,239.37.35,5.35,4.78,9.52,10.14,9.52h186.62c5.6,0,10.14-4.54,10.14-10.14v-41.71c0-5.6-4.54-10.14-10.14-10.14h-110.89c-7.09,0-11.99-7.09-9.49-13.73l60.7-160.72c3.34-8.86-6.2-17.08-14.45-12.44Z"/>
    <path class="cls-1" d="M327.26,102.11c43.65,24.58,132.25,92.93,122.64,239.37-.35,5.35-4.78,9.52-10.14,9.52h-186.62c-5.6,0-10.14-4.54-10.14-10.14v-41.71c0-5.6,4.54-10.14,10.14-10.14h110.89c7.09,0,11.99-7.09,9.49-13.73l-60.7-160.72c-3.34-8.86,6.2-17.08,14.45-12.44Z"/>
    <rect class="cls-1" y="351" width="257" height="76" rx="3.67" ry="3.67"/>
    <rect class="cls-1" x="243" y="351" width="257" height="76" rx="3.67" ry="3.67"/>
  </g>
</svg>