<?xml version="1.0" encoding="UTF-8"?>
<svg id="Layer_2" data-name="Layer 2" xmlns="http://www.w3.org/2000/svg" viewBox="0 0 451.56 416.43">
  <defs>
    <style>
      .cls-1 {
        fill: none;
        stroke: #ef1a0a;
        stroke-miterlimit: 10;
        stroke-width: 5px;
      }

      .cls-2 {
        fill: #ef1a0a;
      }
    </style>
  </defs>
  <g id="balloon">
    <path class="cls-2" d="M229.43,2.93c-82.84,0-150,77.91-150,174.01s67.16,174.01,150,174.01,150-77.91,150-174.01S312.27,2.93,229.43,2.93ZM313.72,108.22c-3.04-13.18-13.06-24.04-22.92-32.79-9.17-8.13-22.69-17.28-34.01-18.46-6.43-.67-11.92-4.92-11.92-11.92,0-5.96,5.51-12.59,11.92-11.92,18.8,1.96,35.3,12.08,49.41,24.18,13.44,11.52,26.44,26.94,30.5,44.57,3.45,14.95-19.54,21.28-22.99,6.34Z"/>
    <path class="cls-2" d="M230.71,344.95c.64,0,2.81.18,3.82,2.5l25.28,58.16c.81,1.86.03,3.37-.34,3.94s-1.45,1.88-3.48,1.88h-53.35c-2.08,0-3.15-1.36-3.52-1.95-.37-.59-1.13-2.15-.22-4.02l28.08-58.16c1.02-2.12,2.96-2.35,3.74-2.35M230.71,339.95c-3.28,0-6.57,1.72-8.24,5.18l-28.08,58.16c-2.94,6.08,1.5,13.14,8.25,13.14h53.35c6.6,0,11.03-6.76,8.4-12.81l-25.28-58.16c-1.59-3.66-5-5.51-8.41-5.51h0Z"/>
    <path class="cls-1" d="M1.8,5.44S65.12,71.15,114.14,1.44"/>
    <path class="cls-1" d="M337.18,5.44s63.32,65.71,112.34-4"/>
  </g>
</svg>