<?xml version="1.0" encoding="UTF-8"?>
<svg id="Layer_2" data-name="Layer 2" xmlns="http://www.w3.org/2000/svg" viewBox="0 0 771.62 504">
  <defs>
    <style>
      .cls-1 {
        fill: #ef1a0a;
      }
    </style>
  </defs>
  <g id="balloon">
    <path class="cls-1" d="M390.9,0l-101.16,127h134.89v103.33s.06,0,.09,0c16.14,0,28.08,13.19,28.78,28.78.7,15.54-13.73,28.78-28.78,28.78-.03,0-.06,0-.09,0v7.42s6.13,73.45,91.97,76.51c85.84,3.06,95.03,0,95.03,0v132.18h160V0h-380.72Z"/>
    <path class="cls-1" d="M0,256.42c0,82.84,77.91,150,174.01,150,96.1,0,174.01-67.16,174.01-150,0-82.84-77.91-150-174.01-150C77.91,106.42,0,173.58,0,256.42ZM105.29,172.12c-13.18,3.04-24.04,13.06-32.79,22.92-8.13,9.17-17.28,22.69-18.46,34.01-.67,6.43-4.92,11.92-11.92,11.92-5.96,0-12.59-5.51-11.92-11.92,1.96-18.8,12.08-35.3,24.18-49.41,11.52-13.44,26.94-26.44,44.57-30.5,14.95-3.45,21.28,19.54,6.34,22.99Z"/>
    <path class="cls-1" d="M404.47,225.69c2,0,4.15,1.59,4.15,4.17v53.35c0,2.58-2.16,4.17-4.16,4.17-.61,0-1.22-.14-1.81-.42l-58.16-28.08c-2.23-1.08-2.36-3.2-2.35-3.83.01-.63.23-2.74,2.5-3.73l58.16-25.28c.54-.24,1.1-.35,1.66-.35M404.47,220.69c-1.21,0-2.44.24-3.65.77l-58.16,25.28c-7.19,3.12-7.39,13.24-.33,16.65l58.16,28.08c1.31.63,2.66.92,3.98.92,4.81,0,9.16-3.87,9.16-9.17v-53.35c0-5.28-4.33-9.17-9.15-9.17h0Z"/>
  </g>
</svg>