<?xml version="1.0" encoding="UTF-8"?>
<svg id="Layer_2" data-name="Layer 2" xmlns="http://www.w3.org/2000/svg" viewBox="0 0 300 489.06">
  <defs>
    <style>
      .cls-1 {
        stroke: #ef1a0a;
        stroke-miterlimit: 10;
        stroke-width: 8px;
      }

      .cls-2 {
        fill: #ef1a0a;
      }
    </style>
  </defs>
  <g id="balloon">
    <path class="cls-2" d="M150,0C67.16,0,0,77.91,0,174.01s67.16,174.01,150,174.01,150-77.91,150-174.01S232.84,0,150,0ZM234.3,105.29c-3.04-13.18-13.06-24.04-22.92-32.79-9.17-8.13-22.69-17.28-34.01-18.46-6.43-.67-11.92-4.92-11.92-11.92,0-5.96,5.51-12.59,11.92-11.92,18.8,1.96,35.3,12.08,49.41,24.18,13.44,11.52,26.44,26.94,30.5,44.57,3.45,14.95-19.54,21.28-22.99,6.34Z"/>
    <path class="cls-2" d="M151.28,342.58c.64,0,2.81.18,3.82,2.5l25.28,58.16c.81,1.86.03,3.37-.34,3.94-.37.56-1.45,1.88-3.48,1.88h-53.35c-2.08,0-3.15-1.36-3.52-1.95-.37-.59-1.13-2.15-.22-4.02l28.08-58.16c1.02-2.12,2.96-2.35,3.74-2.35M151.28,337.58c-3.28,0-6.57,1.72-8.24,5.18l-28.08,58.16c-2.94,6.08,1.5,13.14,8.25,13.14h53.35c6.6,0,11.03-6.76,8.4-12.81l-25.28-58.16c-1.59-3.66-5-5.51-8.41-5.51h0Z"/>
    <line class="cls-1" x1="40.38" y1="459.06" x2="40.38" y2="385.06"/>
    <line class="cls-1" x1="82.38" y1="481.06" x2="82.38" y2="399.06"/>
    <line class="cls-1" x1="24.38" y1="483.06" x2="24.38" y2="357.06"/>
    <line class="cls-1" x1="60.38" y1="455.06" x2="60.38" y2="344.06"/>
    <line class="cls-1" x1="240.38" y1="466.06" x2="240.38" y2="392.06"/>
    <line class="cls-1" x1="282.38" y1="488.06" x2="282.38" y2="406.06"/>
    <line class="cls-1" x1="223.38" y1="489.06" x2="223.38" y2="363.06"/>
    <line class="cls-1" x1="260.38" y1="462.06" x2="260.38" y2="351.06"/>
  </g>
</svg>