<?xml version="1.0" encoding="UTF-8"?>
<svg id="Layer_2" data-name="Layer 2" xmlns="http://www.w3.org/2000/svg" viewBox="0 0 500 427.03">
  <defs>
    <style>
      .cls-1 {
        fill: #028c5c;
      }
    </style>
  </defs>
  <g id="Layer_1-2" data-name="Layer 1">
    <circle class="cls-1" cx="258.11" cy="68.92" r="68.92"/>
    <path class="cls-1" d="M185.82,101.8c-43.76,24.63-132.65,93.18-122.99,240.07.35,5.33,4.79,9.48,10.14,9.48h187.16c5.6,0,10.14-4.54,10.14-10.14v-41.88c0-5.6-4.54-10.14-10.14-10.14h-111.24c-7.09,0-11.99-7.09-9.49-13.73l60.9-161.25c3.35-8.88-6.21-17.08-14.48-12.42Z"/>
    <path class="cls-1" d="M327.69,101.8c43.76,24.63,132.65,93.18,122.99,240.07-.35,5.33-4.79,9.48-10.14,9.48h-187.16c-5.6,0-10.14-4.54-10.14-10.14v-41.88c0-5.6,4.54-10.14,10.14-10.14h111.24c7.09,0,11.99-7.09,9.49-13.73l-60.9-161.25c-3.35-8.88,6.21-17.08,14.48-12.42Z"/>
    <rect class="cls-1" y="351.35" width="256.76" height="75.68" rx="3.67" ry="3.67"/>
    <rect class="cls-1" x="243.24" y="351.35" width="256.76" height="75.68" rx="3.67" ry="3.67"/>
  </g>
</svg>