<?xml version="1.0" encoding="UTF-8"?>
<svg id="Layer_2" data-name="Layer 2" xmlns="http://www.w3.org/2000/svg" viewBox="0 0 547.06 547.06">
  <defs>
    <style>
      .cls-1 {
        fill: none;
        stroke: #000;
        stroke-linecap: round;
        stroke-linejoin: round;
        stroke-width: 16px;
      }
    </style>
  </defs>
  <g id="Layer_1-2" data-name="Layer 1">
    <path class="cls-1" d="M398.4,507.93c-37.22,19.87-79.73,31.13-124.87,31.13-146.65,0-265.53-118.88-265.53-265.53S126.88,8,273.53,8s265.53,118.88,265.53,265.53c0,51.41-15.61,99.41-40.9,140.07"/>
    <circle cx="282.38" cy="380.58" r="42"/>
    <path d="M282.03,328.41h0c-15.2,0-27.81-11.77-28.85-26.93l-12.01-173.99c-1.15-16.72,12.1-30.91,28.85-30.91h23.27c16.71,0,29.94,14.12,28.86,30.79l-11.26,173.99c-.98,15.22-13.61,27.05-28.86,27.05Z"/>
  </g>
</svg>