<?xml version="1.0" encoding="UTF-8"?>
<svg id="Layer_2" data-name="Layer 2" xmlns="http://www.w3.org/2000/svg" viewBox="0 0 579.29 187.76">
  <defs>
    <style>
      .cls-1 {
        fill: #0b29ee;
      }
    </style>
  </defs>
  <g id="Layer_2-2" data-name="Layer 2">
    <path class="cls-1" d="M65.91,134.91c-21.43,0-37.31-17.52-38.23-38.23-.92-20.65,18.23-38.23,38.23-38.23,14.92,0,27.12,8.49,33.49,20.64-5.09-28.56-22.38-55.03-48.52-72.2-2.91-1.91-6.78-1.49-9.22.98-83.03,84.12-19.22,158.56-1.86,175.95,2.37,2.37,6.06,2.78,8.91,1.02,12.37-7.63,42.5-29.8,50.37-69.13-6.88,11.35-19.82,19.21-33.17,19.21Z"/>
    <path class="cls-1" d="M66.92,64.57c-18.27,0-33.08,14.81-33.08,33.08s14.81,33.08,33.08,33.08,33.08-14.81,33.08-33.08-14.81-33.08-33.08-33.08ZM67.16,125.49c-35.93,0-35.87-55.75,0-55.75s35.87,55.75,0,55.75Z"/>
    <circle class="cls-1" cx="73.05" cy="98.87" r="22.05"/>
    <path class="cls-1" d="M184.66,136.75c-21.43,0-37.31-17.52-38.23-38.23-.92-20.65,18.23-38.23,38.23-38.23,14.92,0,27.12,8.49,33.49,20.64-5.09-28.56-22.38-55.03-48.52-72.2-2.91-1.91-6.78-1.49-9.22.98-83.03,84.12-19.22,158.56-1.86,175.95,2.37,2.37,6.06,2.78,8.91,1.02,12.37-7.63,42.5-29.8,50.37-69.13-6.88,11.35-19.82,19.21-33.17,19.21Z"/>
    <path class="cls-1" d="M185.67,66.41c-18.27,0-33.08,14.81-33.08,33.08s14.81,33.08,33.08,33.08,33.08-14.81,33.08-33.08-14.81-33.08-33.08-33.08ZM185.91,127.33c-35.93,0-35.87-55.75,0-55.75s35.87,55.75,0,55.75Z"/>
    <circle class="cls-1" cx="191.8" cy="100.71" r="22.05"/>
    <path class="cls-1" d="M303.4,132.8c-21.43,0-37.31-17.52-38.23-38.23-.92-20.65,18.23-38.23,38.23-38.23,14.92,0,27.12,8.49,33.49,20.64-5.09-28.56-22.38-55.03-48.52-72.2-2.91-1.91-6.78-1.49-9.22.98-83.03,84.12-19.22,158.56-1.86,175.95,2.37,2.37,6.06,2.78,8.91,1.02,12.37-7.63,42.5-29.8,50.37-69.13-6.88,11.35-19.82,19.21-33.17,19.21Z"/>
    <path class="cls-1" d="M304.42,62.46c-18.27,0-33.08,14.81-33.08,33.08s14.81,33.08,33.08,33.08,33.08-14.81,33.08-33.08-14.81-33.08-33.08-33.08ZM304.66,123.38c-35.93,0-35.87-55.75,0-55.75s35.87,55.75,0,55.75Z"/>
    <circle class="cls-1" cx="310.55" cy="96.76" r="22.05"/>
    <path class="cls-1" d="M420.45,134.62c-21.43,0-37.31-17.52-38.23-38.23-.92-20.65,18.23-38.23,38.23-38.23,14.92,0,27.12,8.49,33.49,20.64-5.09-28.56-22.38-55.03-48.52-72.2-2.91-1.91-6.78-1.49-9.22.98-83.03,84.12-19.22,158.56-1.86,175.95,2.37,2.37,6.06,2.78,8.91,1.02,12.37-7.63,42.5-29.8,50.37-69.13-6.88,11.35-19.82,19.21-33.17,19.21Z"/>
    <path class="cls-1" d="M421.47,64.28c-18.27,0-33.08,14.81-33.08,33.08s14.81,33.08,33.08,33.08,33.08-14.81,33.08-33.08-14.81-33.08-33.08-33.08ZM421.7,125.2c-35.93,0-35.87-55.75,0-55.75s35.87,55.75,0,55.75Z"/>
    <circle class="cls-1" cx="427.59" cy="98.58" r="22.05"/>
    <path class="cls-1" d="M545.2,129.23c-21.43,0-37.31-17.52-38.23-38.23-.92-20.65,18.23-38.23,38.23-38.23,14.92,0,27.12,8.49,33.49,20.64-5.09-28.56-22.38-55.03-48.52-72.2-2.91-1.91-6.78-1.49-9.22.98-83.03,84.12-19.22,158.56-1.86,175.95,2.37,2.37,6.06,2.78,8.91,1.02,12.37-7.63,42.5-29.8,50.37-69.13-6.88,11.35-19.82,19.21-33.17,19.21Z"/>
    <path class="cls-1" d="M546.22,58.88c-18.27,0-33.08,14.81-33.08,33.08s14.81,33.08,33.08,33.08,33.08-14.81,33.08-33.08-14.81-33.08-33.08-33.08ZM546.45,119.81c-35.93,0-35.87-55.75,0-55.75s35.87,55.75,0,55.75Z"/>
    <circle class="cls-1" cx="552.34" cy="93.19" r="22.05"/>
  </g>
</svg>