<?xml version="1.0" encoding="UTF-8"?>
<svg id="Layer_2" data-name="Layer 2" xmlns="http://www.w3.org/2000/svg" viewBox="0 0 537.81 163.64">
  <defs>
    <style>
      .cls-1 {
        fill: #0b29ee;
      }
    </style>
  </defs>
  <g id="Layer_2-2" data-name="Layer 2">
    <path class="cls-1" d="M78.64,132.43v20.99l-.8,10.22H8.65L0,72.45s3.1-14.56,17.49-6.16c0,0,13.14-15.73,23.66-1.57,0,0,12.31-15.22,19.51-.53V26.94s-1.8-12.55,7.19-14.65c8.99-2.1,8.99,12.59,8.99,12.59v47.42l12.17,2.55s20.21,5.1,5.82,28.19l-14.39,23.09"/>
    <path class="cls-1" d="M228.51,126.23v20.99l-.8,10.22h-69.19l-8.65-91.19s3.1-14.56,17.49-6.16c0,0,13.14-15.73,23.66-1.57,0,0,12.31-15.22,19.51-.53V20.74s-1.8-12.55,7.19-14.65c8.99-2.1,8.99,12.59,8.99,12.59v47.42l12.17,2.55s20.21,5.1,5.82,28.19l-14.39,23.09"/>
    <path class="cls-1" d="M372.7,128.48v20.99l-.8,10.22h-69.19l-8.65-91.19s3.1-14.56,17.49-6.16c0,0,13.14-15.73,23.66-1.57,0,0,12.31-15.22,19.51-.53V22.99s-1.8-12.55,7.19-14.65c8.99-2.1,8.99,12.59,8.99,12.59v47.42l12.17,2.55s20.21,5.1,5.82,28.19l-14.39,23.09"/>
    <path class="cls-1" d="M516.46,120.34v20.99l-.8,10.22h-69.19l-8.65-91.19s3.1-14.56,17.49-6.16c0,0,13.14-15.73,23.66-1.57,0,0,12.31-15.22,19.51-.53V14.85s-1.8-12.55,7.19-14.65c8.99-2.1,8.99,12.59,8.99,12.59v47.42l12.17,2.55s20.21,5.1,5.82,28.19l-14.39,23.09"/>
  </g>
</svg>