<?xml version="1.0" encoding="UTF-8"?>
<svg id="Layer_2" data-name="Layer 2" xmlns="http://www.w3.org/2000/svg" viewBox="0 0 496.26 259.58">
  <defs>
    <style>
      .cls-1 {
        fill: #0b29ee;
      }
    </style>
  </defs>
  <g id="Layer_2-2" data-name="Layer 2">
    <path class="cls-1" d="M11.96,49.69L88.34,6.6c7.95-4.48,18.02-1.98,22.94,5.71l36.01,56.26c2.89,4.52,3.51,10.14,1.67,15.18l-46.78,127.88c-1.27,3.47-3.62,6.44-6.72,8.47l-55.85,36.65c-9.94,6.52-23.35,1.23-26.15-10.33L.5,192.98c-2.87-11.82,7.11-22.8,19.15-21.08l26.32,3.76c7.84,1.12,15.43-3.26,18.39-10.6l21.54-53.49c1.66-4.12,1.66-8.72,0-12.84l-11.35-28.23c-4.42-11-18.39-14.33-27.31-6.51l-15.48,13.59c-10.99,9.65-28.25,2.05-28.54-12.58h0c-.13-6.33,3.23-12.21,8.74-15.32Z"/>
    <path class="cls-1" d="M8.42,110.25l22.24,20.3c1.39,1.27,1.05,3.54-.66,4.35l-22.24,10.49c-1.76.83-3.78-.45-3.78-2.39v-30.79c0-2.3,2.73-3.51,4.43-1.95Z"/>
    <path class="cls-1" d="M64.91,77.57l-3.31,28.48c-.29,2.53-3.35,3.64-5.2,1.9l-21.16-19.96c-1.69-1.6-1.09-4.42,1.11-5.18l24.47-8.52c2.16-.75,4.36,1.01,4.1,3.28Z"/>
    <path class="cls-1" d="M66.73,145.28l-15.73,23.97c-1.4,2.13-4.63,1.76-5.5-.64l-9.97-27.33c-.8-2.18,1.01-4.43,3.31-4.13l25.69,3.36c2.27.3,3.44,2.86,2.19,4.77Z"/>
    <path class="cls-1" d="M180.35,45.31L256.73,2.22c7.95-4.48,18.02-1.98,22.94,5.71l36.01,56.26c2.89,4.52,3.51,10.14,1.67,15.18l-46.78,127.88c-1.27,3.47-3.62,6.44-6.72,8.47l-55.85,36.65c-9.94,6.52-23.35,1.23-26.15-10.33l-12.96-53.44c-2.87-11.82,7.11-22.8,19.15-21.08l26.32,3.76c7.84,1.12,15.43-3.26,18.39-10.6l21.54-53.49c1.66-4.12,1.66-8.72,0-12.84l-11.35-28.23c-4.42-11-18.39-14.33-27.31-6.51l-15.48,13.59c-10.99,9.65-28.25,2.05-28.54-12.58h0c-.13-6.33,3.23-12.21,8.74-15.32Z"/>
    <path class="cls-1" d="M176.81,105.88l22.24,20.3c1.39,1.27,1.05,3.54-.66,4.35l-22.24,10.49c-1.76.83-3.78-.45-3.78-2.39v-30.79c0-2.3,2.73-3.51,4.43-1.95Z"/>
    <path class="cls-1" d="M233.3,73.19l-3.31,28.48c-.29,2.53-3.35,3.64-5.2,1.9l-21.16-19.96c-1.69-1.6-1.09-4.42,1.11-5.18l24.47-8.52c2.16-.75,4.36,1.01,4.1,3.28Z"/>
    <path class="cls-1" d="M235.11,140.9l-15.73,23.97c-1.4,2.13-4.63,1.76-5.5-.64l-9.97-27.33c-.8-2.18,1.01-4.43,3.31-4.13l25.69,3.36c2.27.3,3.44,2.86,2.19,4.77Z"/>
    <path class="cls-1" d="M358.22,45.31L434.61,2.22c7.95-4.48,18.02-1.98,22.94,5.71l36.01,56.26c2.89,4.52,3.51,10.14,1.67,15.18l-46.78,127.88c-1.27,3.47-3.62,6.44-6.72,8.47l-55.85,36.65c-9.94,6.52-23.35,1.23-26.15-10.33l-12.96-53.44c-2.87-11.82,7.11-22.8,19.15-21.08l26.32,3.76c7.84,1.12,15.43-3.26,18.39-10.6l21.54-53.49c1.66-4.12,1.66-8.72,0-12.84l-11.35-28.23c-4.42-11-18.39-14.33-27.31-6.51l-15.48,13.59c-10.99,9.65-28.25,2.05-28.54-12.58h0c-.13-6.33,3.23-12.21,8.74-15.32Z"/>
    <path class="cls-1" d="M354.68,105.88l22.24,20.3c1.39,1.27,1.05,3.54-.66,4.35l-22.24,10.49c-1.76.83-3.78-.45-3.78-2.39v-30.79c0-2.3,2.73-3.51,4.43-1.95Z"/>
    <path class="cls-1" d="M411.18,73.19l-3.31,28.48c-.29,2.53-3.35,3.64-5.2,1.9l-21.16-19.96c-1.69-1.6-1.09-4.42,1.11-5.18l24.47-8.52c2.16-.75,4.36,1.01,4.1,3.28Z"/>
    <path class="cls-1" d="M412.99,140.9l-15.73,23.97c-1.4,2.13-4.63,1.76-5.5-.64l-9.97-27.33c-.8-2.18,1.01-4.43,3.31-4.13l25.69,3.36c2.27.3,3.44,2.86,2.19,4.77Z"/>
  </g>
</svg>