<?xml version="1.0" encoding="UTF-8"?>
<svg id="Layer_2" data-name="Layer 2" xmlns="http://www.w3.org/2000/svg" viewBox="0 0 500 230.7">
  <defs>
    <style>
      .cls-1 {
        fill: #0b29ee;
      }
    </style>
  </defs>
  <g id="Layer_2-2" data-name="Layer 2">
    <path class="cls-1" d="M59.84,40.66l-2.82,73.07c0,3.33-.89,6.61-2.59,9.48L2.59,167.19c-3.04,5.15-3.42,11.44-1.03,16.92l1.33,3.07c4.03,9.25,14.69,13.62,24.05,9.86l7.09-2.84c7.07-2.84,15.16-1.09,20.43,4.42l41.38,26.32c7.14,7.47,18.99,7.7,26.43.53l39.78-21.45c6.25-6.03,15.85-6.95,23.13-2.21h0c8.69,5.66,20.33,3.14,25.9-5.6l8.14-12.77c5.19-8.14,3.31-18.9-4.33-24.8l-44.98-32.52c-3.64-2.8-6.11-6.85-6.95-11.36l-5.47-76.77c-.84-4.52-3.29-8.58-6.94-11.37-14.75-11.26-33.74-35.75-82.7-1.29-5,3.52-8.01,9.23-8.01,15.34Z"/>
    <path class="cls-1" d="M337.69,33.05l-2.82,73.07c0,3.33-.89,6.61-2.59,9.48l-51.85,43.98c-3.04,5.15-3.42,11.44-1.03,16.92l1.33,3.07c4.03,9.25,14.69,13.62,24.05,9.86l7.09-2.84c7.07-2.84,15.16-1.09,20.43,4.42l41.38,26.32c7.14,7.47,18.99,7.7,26.43.53l39.78-21.45c6.25-6.03,15.85-6.95,23.13-2.21h0c8.69,5.66,20.33,3.14,25.9-5.6l8.14-12.77c5.19-8.14,3.31-18.9-4.33-24.8l-44.98-32.52c-3.64-2.8-6.11-6.85-6.95-11.36l-5.47-76.77c-.84-4.52-3.29-8.58-6.94-11.37-14.75-11.26-33.74-35.75-82.7-1.29-5,3.52-8.01,9.23-8.01,15.34Z"/>
  </g>
</svg>