<?xml version="1.0" encoding="UTF-8"?>
<svg id="Layer_2" data-name="Layer 2" xmlns="http://www.w3.org/2000/svg" viewBox="0 0 289.63 160">
  <defs>
    <style>
      .cls-1 {
        fill: #0b29ee;
      }

      .cls-2 {
        fill: none;
        stroke: #0b29ee;
        stroke-miterlimit: 10;
        stroke-width: 10px;
      }
    </style>
  </defs>
  <g id="Layer_2-2" data-name="Layer 2">
    <path class="cls-2" d="M11.62,52.39L51.97,14.19c5.73-5.42,14-7.21,21.46-4.64l62.96,21.74c4.82,1.66,10.07,1.53,14.8-.37l60.77-24.41c7.02-2.82,15.02-1.68,20.97,3l43.63,34.28c8.94,7.02,10.73,19.85,4.07,29.06l-53.14,73.39c-3.98,5.5-10.36,8.75-17.14,8.75H79.12c-6.42,0-12.5-2.92-16.52-7.93L9.65,80.99c-6.89-8.6-6.03-21.04,1.97-28.61Z"/>
    <path class="cls-1" d="M25.68,97.19s129.75-40.62,232.31,6.9l-43.68,50.92H74.12s-48.44-57.81-48.44-57.81Z"/>
  </g>
</svg>