<?xml version="1.0" encoding="UTF-8"?>
<svg id="Layer_2" data-name="Layer 2" xmlns="http://www.w3.org/2000/svg" viewBox="0 0 400 453.7">
  <defs>
    <style>
      .cls-1 {
        fill: #f1c205;
      }
    </style>
  </defs>
  <g id="Layer_1-2" data-name="Layer 1">
    <path class="cls-1" d="M340.16,401.9c-22.66,0-39.43-18.52-40.41-40.41-.98-21.83,19.27-40.41,40.41-40.41,1.22,0,2.41.06,3.59.17v-43.57c0-6.73-4.62-12.58-11.17-14.13l-84.52-20.05c-6.55-1.55-11.17-7.4-11.17-14.13v-12.03c0-3.85,1.53-7.55,4.25-10.27l39.3-39.3c2.72-2.72,4.25-6.42,4.25-10.27v-33.09c0-4.58,2.16-8.9,5.84-11.64,5.63-4.2,7.45-11.84,4.31-18.13l-12.23-24.49c-.9-1.81-1.42-3.79-1.51-5.81l-2.26-48.04c-.2-4.25-2.25-8.2-5.62-10.81l-6.91-5.47c-8.16,22.7-17.52,45.77-32.41,64.6-13.87,17.54-32.46,30.16-52.53,39.64-20.94,9.9-43.31,16.51-64.14,26.57-12.34,5.96-23.75,13.67-33.06,23.79-5.53,6.01-10.07,12.86-14.59,19.73l49.01,32.87c4,2.68,6.41,7.18,6.43,12l.05,10.91c.03,6.99-4.92,13.01-11.79,14.33l-101.51,19.49C4.94,265.24,0,271.23,0,278.19l.07,160.99c0,8.02,6.51,14.52,14.52,14.52h314.63c8.02,0,14.52-6.5,14.52-14.52v-37.46c-1.19.12-2.39.19-3.59.19Z"/>
    <path class="cls-1" d="M313.36,346.14l37.52-24.8,9.53,11.75,31.46-4.25-6.81,16.96,14.94,4.67-14.8,10.69,14.8,14.54h-26.24l1.91,25.9-18.99-6.32v10.32l-43.32-25.14s-9.16-19.98,0-34.32Z"/>
  </g>
</svg>