<?xml version="1.0" encoding="UTF-8"?>
<svg id="Layer_2" data-name="Layer 2" xmlns="http://www.w3.org/2000/svg" viewBox="0 0 377.38 418.67">
  <defs>
    <style>
      .cls-1 {
        fill: none;
        stroke: #e3b014;
        stroke-miterlimit: 10;
        stroke-width: 16px;
      }
    </style>
  </defs>
  <g id="Layer_1-2" data-name="Layer 1">
    <path class="cls-1" d="M106.98,205.63l43.35,70.78c13.95,7.77,31.12-2.31,31.12-18.29l-1.74-182.41c0-5.8,2.38-11.35,6.63-15.29,7.48-6.93,20.77-13.86,37.26.61,4.5,3.94,7.03,9.67,7.03,15.66l5.22,99.53c0,8.47,5.1,16.11,12.93,19.34l107.3,46.56c7.49,3.1,12.52,10.24,12.91,18.34,1.67,35.05.33,127.86-59,144.13-57.42,15.74-108.6-3.57-133.76-8.19-6.83-1.25-12.58-5.83-15.37-12.19l-88.17-156.38s-13.94-31.7,15.24-34.17c3.51-.3,9.06,3.34,13.29,6.07,2.33,1.51,4.29,3.52,5.75,5.89Z"/>
    <path class="cls-1" d="M42.4,183.47C.71,147.24-3.7,84.08,32.53,42.4,68.76.71,131.93-3.7,173.61,32.53"/>
  </g>
</svg>