<?xml version="1.0" encoding="UTF-8"?>
<svg id="Layer_2" data-name="Layer 2" xmlns="http://www.w3.org/2000/svg" viewBox="0 0 446.88 510.72">
  <defs>
    <style>
      .cls-1 {
        fill: none;
        stroke: #ef1a0a;
        stroke-miterlimit: 10;
        stroke-width: 6px;
      }

      .cls-2 {
        fill: #ef1a0a;
      }
    </style>
  </defs>
  <g id="nervous_shakes" data-name="nervous shakes">
    <rect class="cls-2" x="89.66" y="347.5" width="200" height="59" rx="3.67" ry="3.67" transform="translate(-187.34 566.66) rotate(-90)"/>
    <rect class="cls-2" x="184.66" y="347.5" width="200" height="59" rx="3.67" ry="3.67" transform="translate(-92.34 661.66) rotate(-90)"/>
    <circle class="cls-2" cx="235.16" cy="69" r="69"/>
    <path class="cls-2" d="M188.83,115.41c-28.15,15.84-85.39,59.96-79.15,154.53.23,3.42,3.08,6.07,6.51,6.07h120.46c3.6,0,6.51-2.92,6.51-6.51v-26.97c0-3.6-2.92-6.51-6.51-6.51h-71.61c-4.55,0-7.7-4.55-6.09-8.82l39.21-103.81c2.16-5.71-4-10.96-9.31-7.97Z"/>
    <path class="cls-2" d="M280.48,115.41c28.15,15.84,85.39,59.96,79.15,154.53-.23,3.42-3.08,6.07-6.51,6.07h-120.46c-3.6,0-6.51-2.92-6.51-6.51v-26.97c0-3.6,2.92-6.51,6.51-6.51h71.61c4.55,0,7.7-4.55,6.09-8.82l-39.21-103.81c-2.16-5.71,4-10.96,9.31-7.97Z"/>
    <path class="cls-1" d="M38.2,20.14c-24.2,73.13-14.41,113.89,0,137.84,8.8,14.62,20.74,25.34,24.51,47.6,5.06,29.92-11.04,42.91-17.93,75-10.25,47.82,15.74,64.57,19.32,122.65,1.55,25.18-.92,61.34-20.3,106.31"/>
    <path class="cls-1" d="M17.7,20.14c-24.2,73.13-14.41,113.89,0,137.84,8.8,14.62,20.74,25.34,24.51,47.6,5.06,29.92-11.04,42.91-17.93,75-10.25,47.82,15.74,64.57,19.32,122.65,1.55,25.18-.92,61.34-20.3,106.31"/>
    <path class="cls-1" d="M417.6,13.89c-24.2,73.13-14.41,113.89,0,137.84,8.8,14.62,20.74,25.34,24.51,47.6,5.06,29.92-11.04,42.91-17.93,75-10.25,47.82,15.74,64.57,19.32,122.65,1.55,25.18-.92,61.34-20.3,106.31"/>
    <path class="cls-1" d="M397.1,13.89c-24.2,73.13-14.41,113.89,0,137.84,8.8,14.62,20.74,25.34,24.51,47.6,5.06,29.92-11.04,42.91-17.93,75-10.25,47.82,15.74,64.57,19.32,122.65,1.55,25.18-.92,61.34-20.3,106.31"/>
  </g>
</svg>