<?xml version="1.0" encoding="UTF-8"?>
<svg id="Layer_2" data-name="Layer 2" xmlns="http://www.w3.org/2000/svg" viewBox="0 0 413.9 437.15">
  <defs>
    <style>
      .cls-1 {
        fill: #028c5c;
      }
    </style>
  </defs>
  <g id="Layer_1-2" data-name="Layer 1">
    <path class="cls-1" d="M349.73,227.77H63.54c-10.5,0-19.35-7.8-20.68-18.21L.17,23.48C-1.42,11.02,8.29,0,20.85,0h372.2c12.63,0,22.36,11.14,20.66,23.66l-43.33,186.08c-1.41,10.33-10.23,18.04-20.66,18.04Z"/>
    <path class="cls-1" d="M348.51,234.15H66.39c-7.94,0-14.38,6.44-14.38,14.38v174.25c0,7.94,6.44,14.38,14.38,14.38h282.12c7.94,0,14.38-6.44,14.38-14.38v-174.25c0-7.94-6.44-14.38-14.38-14.38ZM209.99,376.22c-14.3,0-14.28-22.19,0-22.19s14.28,22.19,0,22.19Z"/>
    <path d="M176.84,69.86h54.01c5.65,0,8.41,6.89,4.33,10.79h0c-4.08,3.9-1.32,10.79,4.33,10.79h32.57c4.59,0,7.63,4.78,5.67,8.93l-12.9,27.38c-1.03,2.19-3.24,3.6-5.67,3.6h-111.33c-2.61,0-4.95-1.62-5.86-4.06l-8.35-22.19c-1-2.65-.09-5.64,2.21-7.3l37.33-26.77c1.06-.76,2.34-1.17,3.65-1.17Z"/>
    <path d="M237.57,270.9h-54.01c-5.65,0-8.41,6.89-4.33,10.79h0c4.08,3.9,1.32,10.79-4.33,10.79h-32.57c-4.59,0-7.63,4.78-5.67,8.93l12.9,27.38c1.03,2.19,3.24,3.6,5.67,3.6h111.33c2.61,0,4.95-1.62,5.86-4.06l8.35-22.19c1-2.65.09-5.64-2.21-7.3l-37.33-26.77c-1.06-.76-2.34-1.17-3.65-1.17Z"/>
  </g>
</svg>