<?xml version="1.0" encoding="UTF-8"?>
<svg id="Layer_2" data-name="Layer 2" xmlns="http://www.w3.org/2000/svg" viewBox="0 0 380.94 474.78">
  <defs>
    <style>
      .cls-1, .cls-2 {
        fill: #028c5c;
      }

      .cls-2 {
        stroke: #028c5c;
        stroke-miterlimit: 10;
        stroke-width: 5px;
      }
    </style>
  </defs>
  <g id="Layer_1-2" data-name="Layer 1">
    <path class="cls-1" d="M330.13,271.78H48.02c-7.94,0-14.38,6.44-48.02,14.38v174.25c33.64,7.94,40.08,14.38,48.02,14.38h282.12c7.94,0,14.38-6.44,50.8-14.38v-174.25c-36.43-7.94-42.86-14.38-50.8-14.38ZM191.62,413.84c-14.3,0-14.28-22.19,0-22.19s14.28,22.19,0,22.19Z"/>
    <path class="cls-1" d="M176.61,0l-52.48,65.89h69.98v87.32s3.18,38.1,47.71,39.69c44.53,1.59,49.3,0,49.3,0v68.57h83.01V0h-197.52Z"/>
    <line class="cls-2" x1="76.86" y1="172.39" x2="121.39" y2="113.3"/>
    <line class="cls-2" x1="97.16" y1="215.24" x2="146.51" y2="149.75"/>
    <line class="cls-2" x1="43.22" y1="187.12" x2="119.05" y2="86.49"/>
    <line class="cls-2" x1="95.24" y1="181.24" x2="162.04" y2="92.59"/>
  </g>
</svg>