<?xml version="1.0" encoding="UTF-8"?>
<svg id="Layer_2" data-name="Layer 2" xmlns="http://www.w3.org/2000/svg" viewBox="0 0 310.87 465.7">
  <defs>
    <style>
      .cls-1, .cls-2 {
        fill: #028c5c;
      }

      .cls-1, .cls-3 {
        stroke: #028c5c;
        stroke-miterlimit: 10;
      }

      .cls-3 {
        stroke-width: 4px;
      }
    </style>
  </defs>
  <g id="Layer_1-2" data-name="Layer 1">
    <path class="cls-2" d="M296.5,262.7H14.38c-7.94,0-14.38,6.44-14.38,14.38v174.25c0,7.94,6.44,14.38,14.38,14.38h282.12c7.94,0,14.38-6.44,14.38-14.38v-174.25c0-7.94-6.44-14.38-14.38-14.38ZM157.98,404.76c-14.3,0-14.28-22.19,0-22.19s14.28,22.19,0,22.19Z"/>
    <path class="cls-1" d="M110,.5l-50.29,63.25h66.77v36.05c2.04-.56,4.13-.86,6.18-.86,13.55,0,23.58,11.07,24.17,24.17.27,6.02-2.89,12.9-7.08,17.09-4.38,4.38-10.89,7.08-17.09,7.08-2.16,0-4.23-.28-6.18-.81v1.24s3.05,36.63,45.8,38.16c42.75,1.53,47.33,0,47.33,0v65.64h36.73c-1.45-1.56-2.37-3.64-2.37-5.77v-98.41c0-4.72,3.88-8.22,8.47-8.42,4.57-.2,8.47,4.02,8.47,8.42v98.41c0,2.29-.91,4.29-2.37,5.77h30.76V.5H110ZM262.42,123.01h-59.81c-4.75,0-8.26-3.88-8.47-8.47-.2-4.57,4.04-8.47,8.47-8.47h59.81c4.75,0,8.26,3.88,8.47,8.47.2,4.57-4.04,8.47-8.47,8.47Z"/>
    <line class="cls-3" x1="65.22" y1="117.53" x2="102.07" y2="117.53"/>
    <line class="cls-3" x1="54.26" y1="138.45" x2="95.1" y2="138.45"/>
    <line class="cls-3" x1="49.28" y1="108.57" x2="112.03" y2="108.57"/>
    <line class="cls-3" x1="67.21" y1="127.49" x2="122.49" y2="127.49"/>
  </g>
</svg>