<?xml version="1.0" encoding="UTF-8"?>
<svg id="Layer_2" data-name="Layer 2" xmlns="http://www.w3.org/2000/svg" viewBox="0 0 481.06 504">
  <g id="Layer_1-2" data-name="Layer 1">
    <path d="M100.99,0L0,127h134.06v72.39c4.09-1.12,8.29-1.73,12.42-1.73,27.21,0,47.36,22.24,48.54,48.53.54,12.09-5.8,25.9-14.22,34.31-8.8,8.8-21.88,14.21-34.32,14.21-4.34,0-8.49-.57-12.42-1.62v2.49s6.13,73.56,91.97,76.63c85.84,3.07,95.03,0,95.03,0v131.8h73.75c-2.92-3.14-4.75-7.31-4.75-11.58v-197.62c0-9.48,7.79-16.5,17-16.91,9.18-.41,17,8.07,17,16.91v197.62c0,4.6-1.83,8.62-4.76,11.58h61.76V0H100.99ZM407.05,246h-120.1c-9.53,0-16.59-7.79-17-17-.41-9.18,8.11-17,17-17h120.1c9.53,0,16.59,7.79,17,17,.41,9.18-8.11,17-17,17Z"/>
  </g>
</svg>